<?xml version="1.0" standalone="no"?>
<!DOCTYPE svg PUBLIC "-//W3C//DTD SVG 20010904//EN"
 "http://www.w3.org/TR/2001/REC-SVG-20010904/DTD/svg10.dtd">
<svg version="1.0" xmlns="http://www.w3.org/2000/svg"
 width="166.000000pt" height="159.000000pt" viewBox="0 0 166.000000 159.000000"
 preserveAspectRatio="xMidYMid meet">

<g transform="translate(0.000000,159.000000) scale(0.100000,-0.100000)"
fill="#000000" stroke="none">
<path d="M13 1583 c-10 -4 -13 -172 -13 -794 l0 -789 830 0 830 0 -2 793 -3
792 -815 2 c-448 1 -821 -1 -827 -4z m995 -420 c7 -7 20 -13 28 -13 8 0 14 -4
14 -10 0 -6 6 -9 13 -8 6 2 11 -3 9 -10 -3 -18 26 -26 43 -12 12 10 16 9 21
-6 4 -11 12 -25 18 -33 6 -7 11 -31 12 -51 1 -29 -2 -37 -13 -33 -16 6 -133
-18 -133 -28 0 -4 -9 -5 -20 -2 -14 4 -27 -3 -40 -20 -18 -23 -23 -24 -49 -14
-17 6 -29 15 -28 21 1 5 -14 13 -33 18 -19 4 -43 10 -53 13 -34 8 -37 15 -22
45 9 17 11 31 5 35 -5 3 -7 12 -3 20 3 8 0 15 -7 15 -8 0 -10 8 -5 23 3 12 7
27 7 33 1 7 20 12 43 12 22 1 52 6 66 11 32 13 111 9 127 -6z m133 -234 c8
-15 6 -19 -9 -19 -10 0 -23 -5 -30 -12 -9 -9 -12 -9 -12 -1 0 7 -9 15 -21 18
-20 7 -20 7 -2 24 22 21 60 16 74 -10z m43 -111 l-18 -33 -7 35 c-4 21 -3 37
3 41 5 3 8 15 6 25 -2 11 2 18 10 17 6 -2 13 5 14 15 1 9 3 -2 5 -25 3 -27 -2
-54 -13 -75z m-329 92 c3 -5 -3 -10 -15 -10 -12 0 -18 5 -15 10 3 6 10 10 15
10 5 0 12 -4 15 -10z m422 -22 c-3 -8 -6 -5 -6 6 -1 11 2 17 5 13 3 -3 4 -12
1 -19z m-272 -19 c5 -14 16 -19 43 -19 25 0 32 3 23 9 -9 6 -4 10 18 13 33 5
44 -3 56 -40 21 -69 -115 -85 -156 -19 -23 39 -26 89 -4 81 8 -3 17 -14 20
-25z m-215 11 c0 -5 -5 -10 -11 -10 -5 0 -7 5 -4 10 3 6 8 10 11 10 2 0 4 -4
4 -10z m435 -58 c-9 -20 -12 -52 -15 -146 -1 -39 -6 -77 -10 -85 -5 -9 -20
-42 -35 -74 -28 -60 -70 -117 -86 -117 -6 0 -7 6 -4 13 4 6 0 4 -8 -5 -8 -10
-17 -15 -20 -11 -4 3 -7 -1 -7 -10 0 -16 -22 -25 -67 -25 -13 -1 -23 3 -23 9
0 5 -8 9 -18 9 -10 0 -24 6 -31 13 -11 10 -13 9 -7 0 4 -7 2 -13 -3 -13 -23 0
-2 75 27 99 16 13 16 13 0 8 -20 -7 -54 33 -38 43 6 4 8 14 4 23 -3 9 -5 17
-3 17 2 0 19 4 37 9 24 7 35 6 47 -5 8 -9 15 -11 15 -6 0 6 8 8 19 5 10 -3 22
0 25 6 4 6 18 11 32 11 13 0 24 4 24 8 0 5 -35 9 -77 9 -115 1 -113 1 -113 23
0 21 37 43 54 32 5 -3 6 0 2 6 -4 7 -4 17 0 23 5 8 8 8 14 0 8 -13 40 -4 40
11 0 6 -14 8 -31 6 -40 -6 -66 25 -46 56 10 16 10 31 1 66 -7 28 -7 46 -1 49
12 4 26 -16 33 -51 4 -15 13 -33 20 -39 8 -6 12 -15 9 -19 -3 -4 3 -14 12 -21
9 -8 14 -9 10 -3 -5 8 13 12 58 12 89 0 125 22 145 87 13 44 15 47 18 22 2
-16 0 -36 -3 -45z m-418 32 c-3 -3 -12 -4 -19 -1 -8 3 -5 6 6 6 11 1 17 -2 13
-5z m-2 -34 c3 -5 -1 -10 -9 -10 -9 0 -16 5 -16 10 0 6 4 10 9 10 6 0 13 -4
16 -10z m-19 -40 c8 0 14 -4 14 -9 0 -11 -56 -25 -69 -17 -13 9 -1 46 15 46 8
0 15 6 15 13 1 6 4 2 6 -10 2 -13 11 -23 19 -23z m464 -100 c-6 -11 -16 -20
-21 -20 -13 0 -4 79 14 119 11 24 12 22 15 -26 2 -29 -2 -62 -8 -73z m-468 28
c-25 -45 -50 -58 -67 -35 -19 26 -8 55 24 60 64 10 62 10 43 -25z m-272 -100
c0 -12 -1 -19 -3 -17 -1 2 -9 12 -16 22 -12 14 -11 17 3 17 10 0 16 -8 16 -22z
m234 -19 c6 -31 -7 -69 -23 -69 -11 0 -23 29 -16 40 3 5 0 12 -6 15 -7 5 -4
13 8 25 25 26 30 24 37 -11z m392 -196 c-4 -9 -9 -38 -11 -64 -3 -27 -10 -60
-15 -75 -6 -15 -13 -45 -15 -68 -5 -40 -4 -40 9 -16 l14 25 7 -28 c6 -22 2
-35 -14 -55 -12 -15 -24 -35 -27 -44 -14 -41 -150 -51 -257 -18 -70 22 -76 29
-68 75 6 28 9 30 61 35 48 4 55 8 53 25 -1 11 2 35 8 53 11 33 11 33 90 37 17
1 35 8 40 16 5 8 9 11 9 7 0 -14 75 53 100 90 17 26 25 28 16 5z m-662 -38 c3
-8 1 -15 -4 -15 -6 0 -10 7 -10 15 0 8 2 15 4 15 2 0 6 -7 10 -15z"/>
<path d="M1064 695 c8 -16 22 -39 31 -50 15 -19 15 -18 1 10 -8 17 -22 39 -31
50 -15 19 -15 18 -1 -10z"/>
</g>
</svg>
